<?xml version="1.0" standalone="no"?>
<!DOCTYPE svg PUBLIC "-//W3C//DTD SVG 20010904//EN"
 "http://www.w3.org/TR/2001/REC-SVG-20010904/DTD/svg10.dtd">
<svg version="1.0" xmlns="http://www.w3.org/2000/svg"
 width="100.000000pt" height="100.000000pt" viewBox="0 0 100.000000 100.000000"
 preserveAspectRatio="xMidYMid meet">
<metadata>
Created by potrace 1.11, written by Peter Selinger 2001-2013
</metadata>
<g transform="translate(0.000000,100.000000) scale(0.100000,-0.100000)"
fill="#000000" stroke="none">
<path d="M605 742 c-16 -2 -56 -10 -88 -18 -32 -8 -66 -13 -75 -10 -9 3 -84
-14 -167 -37 -176 -50 -176 -49 -180 -186 -2 -90 6 -121 30 -121 8 0 20 -9 27
-19 6 -10 17 -17 24 -14 6 2 15 -1 19 -7 5 -8 13 -7 29 3 19 13 33 12 113 -6
75 -17 93 -25 102 -44 12 -27 56 -32 65 -7 5 12 13 14 38 8 18 -4 56 -8 83 -9
28 -1 62 -5 77 -9 15 -5 33 -4 40 0 7 5 41 9 76 11 35 1 70 7 78 14 25 21 16
156 -21 327 -6 27 -5 31 8 26 19 -7 28 -31 29 -74 1 -39 23 -33 24 6 2 48 -13
74 -51 90 -19 8 -35 21 -35 29 0 18 -27 30 -95 40 -62 9 -111 12 -150 7z"/>
</g>
</svg>
